<svg xmlns="http://www.w3.org/2000/svg" id="Layer_2" viewBox="0 0 465.06 465.06"><defs><style>.cls-1{fill:#fff;}.cls-2{fill:#c8a978;}</style></defs><g id="Layer_1-2"><circle class="cls-2" cx="232.53" cy="232.53" r="232.53"></circle><path class="cls-1" d="M304,336.58v36.18H147.54v-36.18h57.3V171.71c0-6.53,.19-13.23,.59-20.15l-40.68,34.03c-2.34,1.83-4.66,2.98-6.94,3.42-2.29,.46-4.44,.49-6.46,.11-2.02-.4-3.8-1.08-5.38-2.05-1.56-.99-2.74-2.05-3.52-3.23l-15.25-20.93,86.25-73.34h39.7v247.02h50.85Z"></path><g><path class="cls-1" d="M295.47,350.58c0-4.04,.75-7.89,2.24-11.54,1.5-3.64,3.55-6.78,6.16-9.39s5.75-4.7,9.39-6.26c3.64-1.58,7.56-2.36,11.73-2.36s8.05,.78,11.63,2.36c3.6,1.56,6.72,3.64,9.39,6.26s4.79,5.75,6.37,9.39c1.56,3.64,2.34,7.5,2.34,11.54s-.78,8.05-2.34,11.63c-1.58,3.58-3.69,6.68-6.37,9.3s-5.79,4.66-9.39,6.16c-3.58,1.5-7.46,2.24-11.63,2.24s-8.09-.75-11.73-2.24-6.78-3.55-9.39-6.16-4.66-5.71-6.16-9.3c-1.5-3.58-2.24-7.46-2.24-11.63Z"></path><path class="cls-2" d="M325,382.92c-4.55,0-8.88-.83-12.87-2.47-4.01-1.64-7.5-3.94-10.37-6.81s-5.16-6.32-6.81-10.26c-1.64-3.93-2.48-8.24-2.48-12.79s.83-8.69,2.47-12.68c1.64-4.01,3.94-7.5,6.81-10.37,2.87-2.87,6.34-5.18,10.33-6.89,3.98-1.72,8.33-2.6,12.91-2.6s8.91,.88,12.84,2.61c3.88,1.68,7.34,3.99,10.28,6.85,2.93,2.86,5.29,6.34,7.02,10.35,1.72,4.01,2.59,8.29,2.59,12.73s-.87,8.89-2.59,12.83c-1.74,3.95-4.1,7.39-7.02,10.24-2.94,2.87-6.42,5.16-10.33,6.78-3.93,1.64-8.23,2.47-12.79,2.47Zm0-58.88c-3.75,0-7.3,.71-10.54,2.11-3.29,1.41-6.14,3.3-8.46,5.62-2.31,2.31-4.16,5.14-5.5,8.41-1.34,3.26-2.02,6.76-2.02,10.4s.68,7.28,2.01,10.48c1.34,3.21,3.2,6.01,5.51,8.33s5.14,4.16,8.41,5.5c3.26,1.34,6.83,2.02,10.59,2.02s7.28-.68,10.48-2.01c3.26-1.35,6.02-3.17,8.45-5.54,2.37-2.31,4.29-5.13,5.72-8.36,1.38-3.17,2.09-6.69,2.09-10.43s-.71-7.11-2.1-10.36c-1.42-3.28-3.34-6.11-5.7-8.42-2.41-2.35-5.26-4.25-8.49-5.65-3.18-1.4-6.69-2.11-10.44-2.11Z"></path></g></g></svg>