<svg xmlns="http://www.w3.org/2000/svg" id="Layer_2" viewBox="0 0 465.06 465.06"><defs><style>.cls-1{fill:#fff;}.cls-2{fill:#c8a978;}</style></defs><g id="Layer_1-2"><circle class="cls-2" cx="232.53" cy="232.53" r="232.53"></circle><path class="cls-1" d="M293.23,327.86c5.2,0,9.33,1.46,12.39,4.39,3.05,2.94,4.59,6.8,4.59,11.62v28.9H116.52v-16.02c0-3.24,.68-6.66,2.05-10.25,1.37-3.58,3.54-6.8,6.55-9.66l85.71-85.92c7.15-7.28,13.57-14.25,19.23-20.9,5.67-6.63,10.39-13.2,14.16-19.72,3.78-6.5,6.67-13.11,8.69-19.81,2.02-6.71,3.03-13.76,3.03-21.18,0-6.77-.99-12.73-2.94-17.86-1.95-5.15-4.72-9.47-8.29-13-3.58-3.51-7.88-6.15-12.89-7.9-5.02-1.76-10.65-2.64-16.89-2.64-5.74,0-11.03,.81-15.91,2.43-4.89,1.64-9.22,3.91-13,6.85-3.77,2.92-6.96,6.34-9.57,10.25-2.61,3.89-4.56,8.2-5.85,12.89-2.22,5.99-5.08,9.95-8.6,11.9s-8.6,2.42-15.22,1.37l-25.39-4.48c1.95-13.54,5.72-25.42,11.33-35.64,5.59-10.22,12.58-18.75,20.99-25.58,8.39-6.83,18.02-11.97,28.89-15.41,10.87-3.45,22.56-5.18,35.05-5.18s24.93,1.92,35.74,5.75c10.81,3.85,20.04,9.28,27.73,16.3,7.67,7.04,13.67,15.49,17.96,25.39,4.31,9.9,6.45,20.9,6.45,33,0,10.41-1.54,20.04-4.59,28.89-3.07,8.85-7.17,17.32-12.3,25.39-5.15,8.07-11.17,15.87-18.07,23.42s-14.13,15.24-21.67,23.04l-63.66,65.02c6.12-1.83,12.2-3.23,18.26-4.19,6.05-.99,11.82-1.46,17.29-1.46h72.44Z"></path><g><path class="cls-1" d="M295.47,350.58c0-4.04,.75-7.89,2.24-11.54,1.5-3.64,3.55-6.78,6.16-9.39s5.75-4.7,9.39-6.26c3.64-1.58,7.56-2.36,11.73-2.36s8.05,.78,11.63,2.36c3.6,1.56,6.72,3.64,9.39,6.26s4.79,5.75,6.37,9.39c1.56,3.64,2.34,7.5,2.34,11.54s-.78,8.05-2.34,11.63c-1.58,3.58-3.69,6.68-6.37,9.3s-5.79,4.66-9.39,6.16c-3.58,1.5-7.46,2.24-11.63,2.24s-8.09-.75-11.73-2.24-6.78-3.55-9.39-6.16-4.66-5.71-6.16-9.3c-1.5-3.58-2.24-7.46-2.24-11.63Z"></path><path class="cls-2" d="M325,382.92c-4.55,0-8.88-.83-12.87-2.47-4.01-1.64-7.5-3.94-10.37-6.81s-5.16-6.32-6.81-10.26c-1.64-3.93-2.48-8.24-2.48-12.79s.83-8.69,2.47-12.68c1.64-4.01,3.94-7.5,6.81-10.37,2.87-2.87,6.34-5.18,10.33-6.89,3.98-1.72,8.33-2.6,12.91-2.6s8.91,.88,12.84,2.61c3.88,1.68,7.34,3.99,10.28,6.85,2.93,2.86,5.29,6.34,7.02,10.35,1.72,4.01,2.59,8.29,2.59,12.73s-.87,8.89-2.59,12.83c-1.74,3.95-4.1,7.39-7.02,10.24-2.94,2.87-6.42,5.16-10.33,6.78-3.93,1.64-8.23,2.47-12.79,2.47Zm0-58.88c-3.75,0-7.3,.71-10.54,2.11-3.29,1.41-6.14,3.3-8.46,5.62-2.31,2.31-4.16,5.14-5.5,8.41-1.34,3.26-2.02,6.76-2.02,10.4s.68,7.28,2.01,10.48c1.34,3.21,3.2,6.01,5.51,8.33s5.14,4.16,8.41,5.5c3.26,1.34,6.83,2.02,10.59,2.02s7.28-.68,10.48-2.01c3.26-1.35,6.02-3.17,8.45-5.54,2.37-2.31,4.29-5.13,5.72-8.36,1.38-3.17,2.09-6.69,2.09-10.43s-.71-7.11-2.1-10.36c-1.42-3.28-3.34-6.11-5.7-8.42-2.41-2.35-5.26-4.25-8.49-5.65-3.18-1.4-6.69-2.11-10.44-2.11Z"></path></g></g></svg>