<svg xmlns="http://www.w3.org/2000/svg" id="Layer_2" viewBox="0 0 465.06 465.06"><defs><style>.cls-1{fill:#fff;}.cls-2{fill:#c8a978;}</style></defs><g id="Layer_1-2"><circle class="cls-2" cx="232.53" cy="232.53" r="232.53"></circle><path class="cls-1" d="M137.48,169.36c1.96-13.58,5.74-25.5,11.36-35.76,5.61-10.26,12.62-18.8,21.05-25.65,8.41-6.85,18.07-12.01,28.97-15.46s22.63-5.19,35.15-5.19,24.84,1.88,35.34,5.58c10.5,3.73,19.49,8.86,26.93,15.49,7.44,6.56,13.15,14.31,17.13,23.2,3.98,8.86,5.98,18.45,5.98,28.75,0,9.05-1.02,16.95-3.04,23.81s-4.92,12.84-8.72,17.94c-3.78,5.07-8.48,9.37-14.09,12.91-5.62,3.54-11.95,6.47-18.99,8.83,16.97,5.35,29.62,13.51,37.99,24.48,8.35,10.96,12.52,24.73,12.52,41.3,0,14.09-2.61,26.58-7.84,37.38-5.21,10.87-12.27,19.95-21.14,27.31-8.88,7.39-19.15,12.97-30.83,16.76-11.68,3.76-24.04,5.67-37.11,5.67-14.23,0-26.63-1.66-37.19-4.91-10.58-3.25-19.77-8.09-27.61-14.47-7.82-6.41-14.48-14.25-19.97-23.52-5.48-9.24-10.18-19.95-14.1-32.12l21.34-8.8c5.62-2.36,10.87-2.96,15.78-1.85,4.89,1.08,8.45,3.76,10.66,7.9,2.36,4.59,4.92,9.11,7.74,13.51,2.8,4.46,6.17,8.41,10.07,11.86,3.92,3.47,8.52,6.28,13.82,8.41,5.29,2.17,11.58,3.25,18.9,3.25,8.22,0,15.39-1.34,21.53-4.02,6.13-2.68,11.27-6.18,15.38-10.48s7.17-9.08,9.19-14.37,3.04-10.61,3.04-15.97c0-6.79-.72-12.97-2.15-18.52-1.45-5.55-4.45-10.26-9.02-14.18-4.56-3.92-11.12-6.98-19.66-9.21-8.56-2.23-20.01-3.31-34.37-3.31v-34.48c11.87-.13,21.73-1.21,29.56-3.31,7.84-2.1,14.07-5,18.71-8.73,4.64-3.7,7.86-8.16,9.69-13.38s2.74-10.96,2.74-17.24c0-13.32-3.71-23.42-11.15-30.37-7.44-6.88-17.37-10.36-29.77-10.36-5.75,0-11.03,.8-15.85,2.45-4.83,1.63-9.18,3.89-13.02,6.85-3.86,2.93-7.09,6.34-9.7,10.29-2.61,3.89-4.57,8.22-5.86,12.91-2.23,6.02-5.13,9.97-8.72,11.95-3.6,1.94-8.65,2.42-15.17,1.34l-25.46-4.46Z"></path><g><path class="cls-1" d="M295.47,350.58c0-4.04,.75-7.89,2.24-11.54,1.5-3.64,3.55-6.78,6.16-9.39s5.75-4.7,9.39-6.26c3.64-1.58,7.56-2.36,11.73-2.36s8.05,.78,11.63,2.36c3.6,1.56,6.72,3.64,9.39,6.26s4.79,5.75,6.37,9.39c1.56,3.64,2.34,7.5,2.34,11.54s-.78,8.05-2.34,11.63c-1.58,3.58-3.69,6.68-6.37,9.3s-5.79,4.66-9.39,6.16c-3.58,1.5-7.46,2.24-11.63,2.24s-8.09-.75-11.73-2.24-6.78-3.55-9.39-6.16-4.66-5.71-6.16-9.3c-1.5-3.58-2.24-7.46-2.24-11.63Z"></path><path class="cls-2" d="M325,382.92c-4.55,0-8.88-.83-12.87-2.47-4.01-1.64-7.5-3.94-10.37-6.81s-5.16-6.32-6.81-10.26c-1.64-3.93-2.48-8.24-2.48-12.79s.83-8.69,2.47-12.68c1.64-4.01,3.94-7.5,6.81-10.37,2.87-2.87,6.34-5.18,10.33-6.89,3.98-1.72,8.33-2.6,12.91-2.6s8.91,.88,12.84,2.61c3.88,1.68,7.34,3.99,10.28,6.85,2.93,2.86,5.29,6.34,7.02,10.35,1.72,4.01,2.59,8.29,2.59,12.73s-.87,8.89-2.59,12.83c-1.74,3.95-4.1,7.39-7.02,10.24-2.94,2.87-6.42,5.16-10.33,6.78-3.93,1.64-8.23,2.47-12.79,2.47Zm0-58.88c-3.75,0-7.3,.71-10.54,2.11-3.29,1.41-6.14,3.3-8.46,5.62-2.31,2.31-4.16,5.14-5.5,8.41-1.34,3.26-2.02,6.76-2.02,10.4s.68,7.28,2.01,10.48c1.34,3.21,3.2,6.01,5.51,8.33s5.14,4.16,8.41,5.5c3.26,1.34,6.83,2.02,10.59,2.02s7.28-.68,10.48-2.01c3.26-1.35,6.02-3.17,8.45-5.54,2.37-2.31,4.29-5.13,5.72-8.36,1.38-3.17,2.09-6.69,2.09-10.43s-.71-7.11-2.1-10.36c-1.42-3.28-3.34-6.11-5.7-8.42-2.41-2.35-5.26-4.25-8.49-5.65-3.18-1.4-6.69-2.11-10.44-2.11Z"></path></g></g></svg>